inDegrees=no
num_controls=7
num_derivatives=13
num_iterations=72
num_multipliers=7
num_parameters=0
num_slacks=7
num_states=26
objective=0.545413
objective_accelerations=0.040327
objective_balance=0.003692
objective_effort=0.039950
objective_height=0.451981
objective_ligament=0.009463
solver_duration=833.779413
status=Solve_Succeeded
success=true
DataType=double
version=3
OpenSimVersion=4.5
endheader
time	/jointset/ground_pelvis/pelvis_tilt/value	/jointset/ground_pelvis/pelvis_tx/value	/jointset/ground_pelvis/pelvis_ty/value	/jointset/hip_r/hip_flexion_r/value	/jointset/hip_r/hip_adduction_r/value	/jointset/hip_r/hip_rotation_r/value	/jointset/back/lumbar_extension/value	/jointset/patellofemoral_r/patellar_flexion_r/value	/jointset/knee_r/knee_flexion_r/value	/jointset/knee_r/knee_adduction_r/value	/jointset/knee_r/knee_rotation_r/value	/jointset/ankle_r/ankle_angle_r/value	/jointset/subtalar_r/subtalar_angle_r/value	/jointset/ground_pelvis/pelvis_tilt/speed	/jointset/ground_pelvis/pelvis_tx/speed	/jointset/ground_pelvis/pelvis_ty/speed	/jointset/hip_r/hip_flexion_r/speed	/jointset/hip_r/hip_adduction_r/speed	/jointset/hip_r/hip_rotation_r/speed	/jointset/back/lumbar_extension/speed	/jointset/patellofemoral_r/patellar_flexion_r/speed	/jointset/knee_r/knee_flexion_r/speed	/jointset/knee_r/knee_adduction_r/speed	/jointset/knee_r/knee_rotation_r/speed	/jointset/ankle_r/ankle_angle_r/speed	/jointset/subtalar_r/subtalar_angle_r/speed	/forceset/tau_hip_flexion_r	/forceset/tau_hip_adduction_r	/forceset/tau_hip_rotation_r	/forceset/tau_knee_flexion_r	/forceset/tau_ankle_angle_r	/forceset/tau_subtalar_angle_r	/forceset/tau_lumbar_extension	lambda_cid13_p0	lambda_cid14_p0	lambda_cid14_p1	lambda_cid14_p2	lambda_cid14_p3	lambda_cid14_p4	lambda_cid14_p5	/jointset/ground_pelvis/pelvis_tilt/accel	/jointset/ground_pelvis/pelvis_tx/accel	/jointset/ground_pelvis/pelvis_ty/accel	/jointset/hip_r/hip_flexion_r/accel	/jointset/hip_r/hip_adduction_r/accel	/jointset/hip_r/hip_rotation_r/accel	/jointset/back/lumbar_extension/accel	/jointset/patellofemoral_r/patellar_flexion_r/accel	/jointset/knee_r/knee_flexion_r/accel	/jointset/knee_r/knee_adduction_r/accel	/jointset/knee_r/knee_rotation_r/accel	/jointset/ankle_r/ankle_angle_r/accel	/jointset/subtalar_r/subtalar_angle_r/accel	gamma_cid13_p0	gamma_cid14_p0	gamma_cid14_p1	gamma_cid14_p2	gamma_cid14_p3	gamma_cid14_p4	gamma_cid14_p5
1.5	-0.21085270343079	0.01277076717503411	0.8515845631790274	0.8474560528104305	-0.2250591399113855	-0.1386011708241467	-0.3013336390024086	0.6549731204486232	0.6549731204487683	0.03748830942405194	0.1710739705365487	0.1866500685106627	0.04152049234072866	0.5146003097738896	0.2283661364876152	0.3931535009810885	-1.925459658549818	0.007308859175874315	-0.2907058024447111	0.706496570656359	-1.746833610653005	-1.746833610653023	0.281174031130515	0.004811939082087635	-0.4188112066291958	-0.100382985557005	-0.1350779999533926	-0.01547696302976275	0.008105711919362475	-0.2992693414461301	0.1007019002129284	-0.01323705334934513	0.1707373137301423	-33.73960123312881	-9.566520792873039	-3.455904116413312	-3.521449788084767	-1.503638143930537	-661.1386637065995	54.75257983584459	0.2492649476989075	0.5250000453884632	-0.4228009225840777	-1.236193309817313	0.0007604440755558653	-0.5632855437155606	1.733997068457502	-1.24673561550126	-1.246735615501344	0.4623897080201615	0.01415507819204431	-0.391861141433576	-0.05416791976894491	1.30880234770068e-07	1.940769464118676e-07	-4.553396482665435e-07	1.311843831455062e-06	-6.671918562657704e-08	2.774791620816107e-07	-5.293167205630472e-07
1.51	-0.2056946880868888	0.01508032557500967	0.8554940306511506	0.8281420290623979	-0.2249869765924118	-0.141535168454485	-0.2941836648891538	0.6374450637414496	0.6374450637414115	0.04032548645396816	0.1711229137191786	0.1824426748407192	0.04051284255528398	0.5169283678634804	0.2335051575448877	0.3886454272105664	-1.937043756129446	0.007121102901837539	-0.2960604164291551	0.7233542724267006	-1.758490501913213	-1.758490501913206	0.2862518520260198	0.004962752771621573	-0.4226013413574258	-0.1011313873035772	-0.1270959754840521	-0.01745143265011642	0.007493260136280199	-0.2963907698363122	0.1029370758841917	-0.01368017141008828	0.1636891659583889	-34.65719283619462	-8.62245022057534	-3.368546799436132	-3.666167073910692	-1.713523988643701	-656.5768051277856	55.02865171075639	0.2134368519950814	0.5022834893504643	-0.4789329567041539	-1.074291863567136	-0.02880555419892009	-0.5163188566060856	1.640059796390223	-1.082110836907195	-1.082110836903218	0.529030425842322	0.01371256611047095	-0.3626496672111116	-0.08277263099866156	1.411442003232644e-07	2.011515112730388e-07	-5.532418683574361e-07	1.352031041059694e-06	-6.146493061412021e-08	3.008654775383697e-07	-5.998910398277652e-07
1.52	-0.2005156200396152	0.0174400602562488	0.8593555929150848	0.8087212095622585	-0.2249167432143546	-0.1445216661308599	-0.2868694331451858	0.6198090491305259	0.6198090491303337	0.04321315212195348	0.1711729986491147	0.1781993678177554	0.03949818948659475	0.5188108504493492	0.2384013927403303	0.3835724593432432	-1.946818808970324	0.006922870985582991	-0.3012058116455066	0.7393480967997654	-1.768425191398487	-1.768425191398453	0.2912717587425858	0.005040288532205371	-0.4259938772333952	-0.101783642206046	-0.1191139510147541	-0.01942590227053684	0.006880808353845858	-0.2935121982265134	0.1051722515554357	-0.0141232894709101	0.1566410181866074	-35.54405228976265	-7.685626957437943	-3.279593540999751	-3.814412156211159	-1.925369549883252	-652.1320874398808	55.38494086984641	0.1601498469545115	0.4764428730222977	-0.5357797419443532	-0.8743843620673788	-0.001334684368006668	-0.521441790096961	1.56122158900213	-0.9022952605143156	-0.9022952605143021	0.4508068722324229	-0.000500507598020416	-0.3123413709817028	-0.03493855094831064	1.520492033382548e-07	2.055688335252427e-07	-6.740144930103986e-07	1.37453162325861e-06	-5.212712205597743e-08	3.221560836651092e-07	-6.760882701079445e-07
1.53	-0.1953200244190224	0.01984743707872221	0.8631636591402702	0.7892118263994994	-0.2248485837900017	-0.1475589858169273	-0.279399915871436	0.6020823334907149	0.6020823334904961	0.04615054909073535	0.1712238474722645	0.1739240618454492	0.03847744211004695	0.5202253832277542	0.243022032921932	0.3779515295055019	-1.954732529763067	0.006710598889272213	-0.3062319743645425	0.7543775331051965	-1.776619018702858	-1.776619018702865	0.2961805024388511	0.005121010648582794	-0.4290024390208331	-0.1023458092989898	-0.1108401194915745	-0.02167964203239857	0.006284444285556409	-0.2909999345346948	0.107759616844883	-0.01471801904484433	0.1493317346216143	-36.39539538464783	-6.654836371866546	-3.245339797323382	-3.947873116313957	-2.108464244260525	-647.8171241903364	55.7205944670923	0.1196904722344056	0.4470775396286434	-0.5885677478147988	-0.7010458181754453	-0.03082336062901209	-0.4890223853731775	1.447130924774456	-0.733122753932452	-0.7331227539384232	0.5067796187203895	0.01135183212261132	-0.2853626987478964	-0.06383149334146324	1.636353086564011e-07	2.071628355054189e-07	-8.190869225105597e-07	1.378240163838951e-06	-3.84505378555434e-08	3.412199986287028e-07	-7.582598433420512e-07
1.54	-0.1901127663748608	0.02229946089279164	0.8669128524384528	0.7696330700527513	-0.2247824770642526	-0.1506457309047235	-0.2717854389799431	0.5842826403201641	0.584282640319897	0.04913620779657179	0.1712753021687496	0.1696206204320444	0.0374516779215952	0.5211433351642344	0.2473307910595337	0.3717978739426499	-1.960693445767707	0.006512331258300232	-0.3110908919862373	0.7683400203490763	-1.783020697548588	-1.783020697548636	0.3009241061509731	0.005161463199639656	-0.4316209654531963	-0.102787004586898	-0.1025662879684162	-0.02393338179429451	0.005688080217410048	-0.2884876708428914	0.1103469821343135	-0.01531274861883086	0.1420224510566107	-37.20642595990227	-5.631782930432973	-3.209355331843476	-4.085135214993077	-2.291811320611661	-643.6276349788424	56.1415237984971	0.06083367856958165	0.4140664642221275	-0.642324886966509	-0.4838234044469479	0.001466208699786356	-0.4879927706286358	1.347831776691874	-0.5438655687860976	-0.5438655687861047	0.4177788754038105	-0.008554420662157509	-0.2343342999669804	-0.01074418994124095	1.734732902074255e-07	2.0791373363078e-07	-9.425175305456846e-07	1.380035826431921e-06	-2.627486173952045e-08	3.57478143599628e-07	-8.301801270729847e-07
1.55	-0.1848987764724166	0.02479293729113489	0.8705979107012731	0.750004525934208	-0.2247183847332312	-0.1537805133510886	-0.2640368049132469	0.566428055543256	0.566428055543404	0.0521684736580902	0.1713273075592703	0.1652929702754935	0.03642199955644084	0.5215757746333677	0.2513044162313136	0.3651311875331536	-1.964678977079284	0.006301627900420377	-0.3158440837959312	0.7811931201869921	-1.787574515733192	-1.787574515733199	0.3055036030926935	0.005247961129907744	-0.4338380351038578	-0.1031348722807125	-0.09440521246380253	-0.02630166929398868	0.005107332702822393	-0.2858846217099408	0.1127137226432168	-0.01602001070749022	0.1347950565040346	-37.97235819055778	-4.701198026198574	-3.241255538519173	-4.208351239714641	-2.359346629057149	-639.6686613649573	56.47769495473055	0.02263711559758866	0.3799976815321357	-0.6911536332570821	-0.3054319971768709	-0.03292587988254814	-0.4654829464998547	1.224998167034455	-0.362915757348391	-0.362915757341954	0.4741319000833797	0.01876866391454483	-0.2047153443080695	-0.04474932586470054	1.812971291572008e-07	2.076932294886367e-07	-1.041012996458052e-06	1.379627520909008e-06	-1.58284927642319e-08	3.705035535790007e-07	-8.902891424633065e-07
1.56	-0.1796828245683885	0.02732434736877131	0.874213839476935	0.7303462237020111	-0.2246565168901388	-0.1569621278276374	-0.2561654500322361	0.548537577421717	0.5485375774222382	0.05524575384833918	0.1713804812818764	0.1609452850130975	0.03538925426099578	0.5215357354830378	0.2549175269181688	0.3579719765109431	-1.966645068497397	0.006067433668514552	-0.3204572980200369	0.792884183212644	-1.790199366479829	-1.790199366479793	0.3099269718954896	0.005395129621908229	-0.4356279866222157	-0.1034003906450543	-0.08624413695920111	-0.02866995679371454	0.004526585188172084	-0.2832815725770016	0.1150804631521049	-0.01672727279618945	0.127567661951457	-38.68851389343542	-3.779062920626275	-3.271388440746148	-4.335558504611845	-2.42607842312727	-635.8478749886164	56.90247674979188	-0.03366204532301112	0.3419635672370288	-0.7408298095093626	-0.07993542575402161	-0.003231966105370535	-0.4599972535109392	1.115424414239103	-0.1580720811924798	-0.1580720811924731	0.3865532476189887	0.003579691684290284	-0.1489106735064603	0.005725675953251853	1.914182552239232e-07	2.055513483416997e-07	-1.17547261410621e-06	1.363850174538851e-06	-6.21016186491457e-10	3.807785091136014e-07	-9.57168584919494e-07
1.57	-0.174469720740824	0.02989002435675851	0.8777558152374911	0.7106784079681857	-0.224597131838573	-0.160189780656456	-0.2481831263702493	0.5306304568991577	0.5306304568993914	0.05836626972144726	0.1714359692143684	0.1565817953504938	0.03435424347025717	0.520997964839744	0.2581511839228827	0.3503505840466025	-1.966570348302347	0.005806966167022371	-0.3250618346678372	0.8033720762099281	-1.790900637814927	-1.790900637814884	0.3141410038038756	0.005723112334850099	-0.436999225383123	-0.1035860885041375	-0.07796202090880247	-0.03129821204231241	0.003934749006777109	-0.2810987013781687	0.1178858771941371	-0.01761734280904056	0.1202796884213002	-39.35036737881392	-2.749944393214992	-3.367507927056216	-4.446162323744355	-2.515947953598574	-632.4203289373271	57.29442786621796	-0.07687683905642459	0.3040702972527111	-0.783604387641426	0.1033597148639692	-0.03781127195295099	-0.4586792880380316	0.9842007963847991	0.02241799535466007	0.02241799535591314	0.4334085761887424	0.05076292702191926	-0.1205902029334283	-0.02844174874235808	2.044109901868297e-07	2.010077459387704e-07	-1.354887421424107e-06	1.32886152710964e-06	2.05378448943138e-08	3.876153965922374e-07	-1.032511061208014e-06
1.58	-0.1692646030727504	0.03248603862082586	0.8812194149888544	0.691021776230854	-0.2245404228879701	-0.1634630783352804	-0.2401021779675103	0.5127260381942068	0.5127260381942068	0.06152784199632754	0.1714954080473094	0.1522067213551707	0.03331783085454703	0.5199385035875449	0.2609849821342025	0.3422967746723782	-1.964408269198101	0.005532213474248425	-0.3295862680205988	0.8126091313636957	-1.789659002949102	-1.789659002949052	0.3181382522618638	0.006185309684692867	-0.4379448531660546	-0.1036807556393495	-0.06967990485836692	-0.0339264672908933	0.003342912826191291	-0.2789158301793665	0.1206912912361632	-0.01850741282188543	0.1129917148911731	-39.9544256284268	-1.72963424453773	-3.461592063419094	-4.561177913832564	-2.604908029168233	-629.1386368471797	57.77724064167401	-0.1380001671041455	0.2619918085580588	-0.8273131914861113	0.3375363560849878	-0.00608900436174362	-0.4439765945031484	0.8652568455357474	0.2305091589921963	0.2305091589921704	0.343196557539435	0.03042261906443174	-0.06378847791148345	0.02393182072744736	2.165695265478077e-07	1.996527310457503e-07	-1.512771828793177e-06	1.307816768996195e-06	3.603871412276189e-08	4.036910131134009e-07	-1.101123888322501e-06
